<svg width="64" height="64" viewBox="0 0 64 64" fill="none" xmlns="http://www.w3.org/2000/svg">
    <g clip-path="url(#clip0_1374_25219)">
        <path
            d="M54.223 24.7819C55.9087 23.7403 57.1471 22.1092 57.6974 20.2055C58.2478 18.3019 58.0709 16.2616 57.201 14.4811C56.3312 12.7006 54.8305 11.3071 52.9906 10.5712C51.1507 9.83527 49.103 9.80958 47.2452 10.4991L33.8159 13.0171L33.8109 13.0191C32.7861 13.0665 31.8187 13.5063 31.1093 14.2474C30.3998 14.9885 30.0026 15.9741 30 17V24H25V22H28C28.1584 21.9999 28.3146 21.9622 28.4556 21.8899C28.5966 21.8177 28.7184 21.713 28.811 21.5844C28.9037 21.4559 28.9645 21.3072 28.9884 21.1506C29.0123 20.994 28.9987 20.8339 28.9487 20.6836L27.3875 16H28C28.1584 15.9999 28.3146 15.9622 28.4556 15.8899C28.5966 15.8177 28.7184 15.713 28.811 15.5844C28.9037 15.4559 28.9645 15.3072 28.9884 15.1506C29.0123 14.994 28.9987 14.8339 28.9487 14.6836L26.9487 8.6836C26.8823 8.48451 26.755 8.31135 26.5847 8.18866C26.4144 8.06597 26.2099 7.99997 26 8H14C13.7901 7.99997 13.5856 8.06597 13.4153 8.18866C13.245 8.31135 13.1177 8.48451 13.0513 8.6836L11.0513 14.6836C11.0013 14.8339 10.9877 14.994 11.0116 15.1506C11.0355 15.3072 11.0963 15.4559 11.189 15.5844C11.2816 15.713 11.4034 15.8177 11.5444 15.8899C11.6854 15.9622 11.8416 15.9999 12 16H12.6125L11.2791 20H8V3C7.99998 2.73479 7.89462 2.48045 7.70708 2.29292C7.51955 2.10538 7.26521 2.00002 7 2H3C2.73479 2.00002 2.48045 2.10538 2.29292 2.29292C2.10538 2.48045 2.00002 2.73479 2 3V7C2.00002 7.26521 2.10538 7.51955 2.29292 7.70708C2.48045 7.89462 2.73479 7.99998 3 8H6V21C6.00002 21.2652 6.10538 21.5196 6.29292 21.7071C6.48045 21.8946 6.73479 22 7 22H15V24H14C10.8185 24.0036 7.76839 25.2691 5.51874 27.5187C3.26909 29.7684 2.00364 32.8185 2 36V42C2.00469 45.0182 3.14578 47.924 5.19613 50.1389C7.24648 52.3538 10.0557 53.7154 13.0646 53.9526C12.3792 54.8209 12.0044 55.8938 12 57C12 58.3261 12.5268 59.5979 13.4645 60.5355C14.4021 61.4732 15.6739 62 17 62C18.3261 62 19.5979 61.4732 20.5355 60.5355C21.4732 59.5979 22 58.3261 22 57C21.9962 55.9146 21.6358 54.8606 20.9744 54H43.0256C42.3642 54.8606 42.0038 55.9146 42 57C42 58.3261 42.5268 59.5979 43.4645 60.5355C44.4021 61.4732 45.6739 62 47 62C48.3261 62 49.5979 61.4732 50.5355 60.5355C51.4732 59.5979 52 58.3261 52 57C51.9956 55.8938 51.6208 54.8209 50.9354 53.9526C53.9443 53.7154 56.7535 52.3538 58.8039 50.1389C60.8542 47.924 61.9953 45.0182 62 42V36C61.9958 33.5617 61.2495 31.1824 59.8603 29.1786C58.4711 27.1747 56.5049 25.6412 54.223 24.7819ZM4 4H6V6H4V4ZM38 17C37.996 16.0631 37.66 15.1579 37.0518 14.4452L43.6026 13.2169C42.6901 14.4268 42.1425 15.8724 42.0242 17.3832C41.906 18.8941 42.2221 20.4072 42.9353 21.7444L38 20.2021V17ZM43.447 24H38V22.2978L43.447 24ZM56 18C55.9978 19.5673 55.3827 21.0716 54.2862 22.1915C53.1897 23.3114 51.6986 23.9581 50.1317 23.9933L46.4883 22.8548C45.618 22.2279 44.932 21.3788 44.502 20.3961C44.0721 19.4134 43.914 18.3333 44.0443 17.2687C44.1746 16.204 44.5885 15.1939 45.2427 14.3439C45.8969 13.4939 46.7675 12.8353 47.7633 12.4368L50.0732 12.0037C51.6508 12.0241 53.1569 12.6646 54.266 13.7867C55.375 14.9088 55.9979 16.4223 56 18ZM34 15C34.3956 15 34.7822 15.1173 35.1111 15.3371C35.44 15.5568 35.6964 15.8692 35.8478 16.2346C35.9991 16.6001 36.0387 17.0022 35.9616 17.3902C35.8844 17.7781 35.6939 18.1345 35.4142 18.4142C35.1345 18.6939 34.7781 18.8844 34.3902 18.9616C34.0022 19.0387 33.6001 18.9991 33.2346 18.8478C32.8692 18.6964 32.5568 18.44 32.3371 18.1111C32.1173 17.7822 32 17.3956 32 17C32.0005 16.4697 32.2114 15.9613 32.5864 15.5864C32.9613 15.2114 33.4697 15.0005 34 15ZM32 20.4435C32.5406 20.7594 33.1485 20.9423 33.7737 20.9771L36 21.6728V24H32V20.4435ZM14.7207 10H25.2793L26.6128 14H13.3872L14.7207 10ZM13.3872 20L14.7207 16H25.2793L26.6128 20H13.3872ZM17 22H23V24H17V22ZM20 57C20 57.5933 19.8241 58.1734 19.4944 58.6667C19.1648 59.1601 18.6962 59.5446 18.1481 59.7716C17.5999 59.9987 16.9967 60.0581 16.4147 59.9424C15.8328 59.8266 15.2982 59.5409 14.8787 59.1213C14.4591 58.7018 14.1734 58.1672 14.0576 57.5853C13.9419 57.0033 14.0013 56.4001 14.2284 55.852C14.4554 55.3038 14.8399 54.8352 15.3333 54.5056C15.8266 54.1759 16.4067 54 17 54C17.7954 54.0009 18.5579 54.3172 19.1204 54.8796C19.6828 55.4421 19.9991 56.2046 20 57ZM47 60C46.4067 60 45.8266 59.8241 45.3333 59.4944C44.8399 59.1648 44.4554 58.6962 44.2284 58.148C44.0013 57.5999 43.9419 56.9967 44.0576 56.4147C44.1734 55.8328 44.4591 55.2982 44.8787 54.8787C45.2982 54.4591 45.8328 54.1734 46.4147 54.0576C46.9967 53.9419 47.5999 54.0013 48.148 54.2284C48.6962 54.4554 49.1648 54.8399 49.4944 55.3333C49.8241 55.8266 50 56.4067 50 57C49.9991 57.7954 49.6828 58.5579 49.1204 59.1204C48.5579 59.6828 47.7954 59.9991 47 60ZM60 42C59.9971 44.6513 58.9426 47.1931 57.0678 49.0678C55.1931 50.9426 52.6513 51.9971 50 52H14C11.3487 51.9971 8.80691 50.9425 6.93218 49.0678C5.05746 47.1931 4.00294 44.6513 4 42V36C4.00294 33.3487 5.05746 30.8069 6.93218 28.9322C8.80691 27.0575 11.3487 26.0029 14 26H49.9973L50.0005 26.0005L50.0027 26.0001C52.6535 26.0038 55.1946 27.0586 57.0687 28.9332C58.9429 30.8078 59.997 33.3492 60 36V42Z"
            fill="black" />
        <path
            d="M50 14C49.2089 14 48.4355 14.2346 47.7777 14.6741C47.1199 15.1136 46.6072 15.7384 46.3045 16.4693C46.0017 17.2002 45.9225 18.0044 46.0769 18.7804C46.2312 19.5563 46.6122 20.269 47.1716 20.8284C47.731 21.3878 48.4437 21.7688 49.2196 21.9231C49.9956 22.0775 50.7998 21.9983 51.5307 21.6955C52.2616 21.3928 52.8864 20.8801 53.3259 20.2223C53.7654 19.5645 54 18.7911 54 18C53.9988 16.9395 53.577 15.9228 52.8271 15.1729C52.0772 14.423 51.0605 14.0012 50 14ZM50 20C49.6044 20 49.2178 19.8827 48.8889 19.6629C48.56 19.4432 48.3036 19.1308 48.1522 18.7654C48.0009 18.3999 47.9613 17.9978 48.0384 17.6098C48.1156 17.2219 48.3061 16.8655 48.5858 16.5858C48.8655 16.3061 49.2219 16.1156 49.6098 16.0384C49.9978 15.9613 50.3999 16.0009 50.7654 16.1522C51.1308 16.3036 51.4432 16.56 51.6629 16.8889C51.8827 17.2178 52 17.6044 52 18C51.9995 18.5303 51.7886 19.0387 51.4136 19.4136C51.0387 19.7886 50.5303 19.9995 50 20Z"
            fill="black" />
        <path
            d="M47 32H17C16.7348 32 16.4805 32.1054 16.2929 32.2929C16.1054 32.4805 16 32.7348 16 33V43C16 43.2652 16.1054 43.5195 16.2929 43.7071C16.4805 43.8946 16.7348 44 17 44H47C47.2652 44 47.5195 43.8946 47.7071 43.7071C47.8946 43.5195 48 43.2652 48 43V33C48 32.7348 47.8946 32.4805 47.7071 32.2929C47.5195 32.1054 47.2652 32 47 32ZM46 42H18V34H46V42Z"
            fill="black" />
        <path
            d="M21 46H17C16.7348 46 16.4804 46.1054 16.2929 46.2929C16.1054 46.4804 16 46.7348 16 47C16 47.2652 16.1054 47.5196 16.2929 47.7071C16.4804 47.8946 16.7348 48 17 48H21C21.2652 48 21.5196 47.8946 21.7071 47.7071C21.8946 47.5196 22 47.2652 22 47C22 46.7348 21.8946 46.4804 21.7071 46.2929C21.5196 46.1054 21.2652 46 21 46Z"
            fill="black" />
        <path
            d="M29 46H25C24.7348 46 24.4804 46.1054 24.2929 46.2929C24.1054 46.4804 24 46.7348 24 47C24 47.2652 24.1054 47.5196 24.2929 47.7071C24.4804 47.8946 24.7348 48 25 48H29C29.2652 48 29.5196 47.8946 29.7071 47.7071C29.8946 47.5196 30 47.2652 30 47C30 46.7348 29.8946 46.4804 29.7071 46.2929C29.5196 46.1054 29.2652 46 29 46Z"
            fill="black" />
        <path
            d="M13 29C9.69141 29 7 32.1401 7 36C7 36.2652 7.10536 36.5196 7.29289 36.7071C7.48043 36.8946 7.73478 37 8 37C8.26522 37 8.51957 36.8946 8.70711 36.7071C8.89464 36.5196 9 36.2652 9 36C9 33.2432 10.7944 31 13 31C13.2652 31 13.5196 30.8946 13.7071 30.7071C13.8946 30.5196 14 30.2652 14 30C14 29.7348 13.8946 29.4804 13.7071 29.2929C13.5196 29.1054 13.2652 29 13 29Z"
            fill="black" />
    </g>
    <defs>
        <clipPath id="clip0_1374_25219">
            <rect width="64" height="64" fill="white" />
        </clipPath>
    </defs>
</svg>