<svg width="24" height="24" viewBox="0 0 24 24" fill="none" xmlns="http://www.w3.org/2000/svg">
<path d="M16.5907 10.7931C16.5935 10.9081 16.5009 11.0063 16.3831 11.0063L15.1236 11.026H15.1208C15.0058 11.026 14.9133 10.9334 14.9104 10.8184C14.9076 10.7034 15.0002 10.608 15.118 10.6052L16.3775 10.5856C16.4925 10.5828 16.5879 10.6753 16.5907 10.7931ZM8.15022 10.709L6.89074 10.7286C6.77574 10.7314 6.68317 10.8268 6.68317 10.9418C6.68597 11.0568 6.77854 11.1494 6.89355 11.1494H6.89635L8.15583 11.1297C8.27084 11.1269 8.36341 11.0316 8.36341 10.9166C8.3606 10.8016 8.26803 10.709 8.15303 10.709H8.15022ZM16.5374 9.28401C16.4981 9.23913 16.4392 9.21388 16.3775 9.21388C15.8782 9.21949 15.3761 9.2251 14.8712 9.23071C14.7562 9.23071 14.6608 9.32608 14.6636 9.4439C14.6636 9.55891 14.759 9.65147 14.874 9.65147H14.8768C15.3088 9.64586 15.7379 9.64306 16.1643 9.63745C16.1643 9.65708 16.1671 9.67672 16.1671 9.69635C16.1727 9.7749 16.1755 9.84783 16.1671 9.91795C16.1531 10.033 16.2372 10.1368 16.3523 10.1508C16.3607 10.1508 16.3691 10.1536 16.3775 10.1536C16.4813 10.1536 16.5739 10.075 16.5851 9.96845C16.5991 9.85905 16.5907 9.76087 16.5851 9.67111C16.5795 9.59257 16.5767 9.51963 16.5851 9.44951C16.5963 9.3878 16.5767 9.32889 16.5374 9.28401ZM8.41951 9.72721C8.53452 9.72721 8.62989 9.63184 8.62708 9.51402C8.62708 9.39902 8.53171 9.30645 8.4167 9.30645H8.4139H8.36341C7.86971 9.31206 7.37883 9.31767 6.89074 9.32328C6.77574 9.32328 6.68317 9.41865 6.68317 9.53366V10.0694C6.68317 10.1844 6.77854 10.2798 6.89355 10.2798C7.00856 10.2798 7.10393 10.1844 7.10393 10.0694V9.74123C7.52469 9.73562 7.94545 9.73282 8.36902 9.72721H8.41951ZM16.3803 7.7328C15.2863 7.73841 14.2008 7.74963 13.2863 7.75805C13.1713 7.75805 13.0759 7.85342 13.0787 7.97124C13.0787 8.08624 13.1741 8.17881 13.2891 8.17881H13.2919C14.1503 8.17039 15.1573 8.16198 16.1783 8.15356C16.1783 8.19284 16.1755 8.23491 16.1727 8.27418C16.1671 8.392 16.1587 8.51261 16.1727 8.65006C16.1839 8.75946 16.2737 8.84081 16.3831 8.84081C16.3887 8.84081 16.3971 8.84081 16.4027 8.84081C16.5178 8.82959 16.6019 8.7258 16.5907 8.61079C16.5795 8.507 16.5851 8.40602 16.5907 8.29943C16.5963 8.18161 16.6047 8.061 16.5907 7.92355C16.5795 7.81415 16.4869 7.7328 16.3803 7.7328ZM9.85571 7.79451C8.75892 7.80574 7.78837 7.81415 6.89355 7.81976C6.77854 7.81976 6.68597 7.91233 6.68317 8.02734C6.68317 8.1171 6.68317 8.20406 6.68317 8.29382C6.68317 8.37236 6.68317 8.45371 6.68317 8.53225C6.68317 8.64726 6.77574 8.74263 6.89355 8.74263C7.00856 8.74263 7.10393 8.65006 7.10393 8.53225C7.10393 8.4509 7.10393 8.36956 7.10393 8.29101C7.10393 8.27418 7.10393 8.25455 7.10393 8.23772C7.94265 8.23211 8.84588 8.22369 9.85851 8.21528C9.97352 8.21528 10.0689 8.1199 10.0661 8.00209C10.0661 7.88428 9.97071 7.79171 9.85571 7.79451ZM6.68317 7.11008C6.69439 7.22509 6.79537 7.31204 6.91319 7.30082C7.02819 7.2896 7.11515 7.18862 7.10393 7.07081C7.09551 6.96982 7.09832 6.86604 7.10393 6.75383C7.10673 6.70615 7.10954 6.65566 7.10954 6.60797C10.4644 6.58833 12.8964 6.58833 16.1727 6.58833C16.1727 6.63883 16.1699 6.69212 16.1699 6.74542C16.1671 6.87445 16.1643 7.00629 16.1699 7.13252C16.1755 7.24472 16.2681 7.33168 16.3803 7.33168C16.3831 7.33168 16.3887 7.33168 16.3915 7.33168C16.5065 7.32607 16.5963 7.22789 16.5907 7.11008C16.5851 6.99787 16.5879 6.88006 16.5907 6.75383C16.5935 6.6248 16.5963 6.49296 16.5907 6.36673C16.5851 6.25453 16.4925 6.16757 16.3803 6.16757C12.9273 6.16757 10.4307 6.16757 6.89355 6.18721C6.83464 6.18721 6.77854 6.21245 6.73927 6.25734C6.7 6.30222 6.68036 6.35832 6.68597 6.41722C6.69439 6.51821 6.69158 6.622 6.68597 6.7342C6.67756 6.85482 6.67195 6.97824 6.68317 7.11008ZM14.456 12.3696C14.456 12.4846 14.5514 12.58 14.6664 12.58C15.2947 12.5772 15.8529 12.5744 16.3775 12.5744C16.4364 12.5744 16.4897 12.5491 16.5318 12.507C16.5739 12.465 16.5907 12.4089 16.5879 12.35C16.5823 12.2686 16.5851 12.1704 16.5879 12.0722C16.5907 11.9657 16.5935 11.8563 16.5879 11.7581C16.5795 11.6431 16.4813 11.5533 16.3663 11.5617C16.2513 11.5701 16.1615 11.6683 16.1699 11.7833C16.1755 11.8647 16.1727 11.9629 16.1699 12.061C16.1699 12.0919 16.1671 12.1227 16.1671 12.1536C15.7043 12.1536 15.2106 12.1564 14.6664 12.1592C14.5486 12.1592 14.456 12.2546 14.456 12.3696ZM6.68317 12.4285C6.68317 12.4846 6.70561 12.5379 6.74488 12.5772C6.78415 12.6164 6.83745 12.6389 6.89355 12.6389C7.4209 12.6389 7.9735 12.6361 8.53732 12.6333C8.65233 12.6333 8.7477 12.5379 8.7477 12.4229C8.7477 12.3079 8.65233 12.2125 8.53732 12.2125C8.53732 12.2125 8.53732 12.2125 8.53452 12.2125C8.04643 12.2153 7.56677 12.2181 7.10393 12.2181V11.8955C7.10393 11.7805 7.00856 11.6852 6.89355 11.6852C6.77854 11.6852 6.68317 11.7805 6.68317 11.8955V12.4285ZM12.8375 13.8984C12.8375 14.0134 12.9329 14.1059 13.0479 14.1059H13.0507C14.2821 14.0919 15.3116 14.061 16.3915 14.0049C16.4504 14.0021 16.5037 13.9741 16.5402 13.932C16.5767 13.8899 16.5963 13.831 16.5879 13.7721C16.5795 13.7048 16.5851 13.6375 16.5879 13.5645C16.5935 13.4804 16.5991 13.3878 16.5879 13.284C16.5739 13.169 16.4701 13.0849 16.3551 13.0989C16.24 13.1129 16.1559 13.2167 16.1699 13.3317C16.1783 13.399 16.1727 13.4664 16.1699 13.5393C16.1699 13.5561 16.1671 13.5758 16.1671 13.5954C15.1657 13.6431 14.1952 13.6711 13.0451 13.6852C12.9273 13.6852 12.8347 13.7805 12.8375 13.8984ZM6.68317 13.9825C6.68878 14.0947 6.78135 14.1817 6.89355 14.1817C6.89635 14.1817 6.89916 14.1817 6.89916 14.1817C7.9146 14.1508 8.89076 14.134 10.0605 14.1256C10.1755 14.1256 10.2709 14.0302 10.2681 13.9124C10.2681 13.7974 10.1727 13.7048 10.0577 13.7048C10.0577 13.7048 10.0577 13.7048 10.0549 13.7048C8.96369 13.7132 8.04082 13.7272 7.09832 13.7553C7.09832 13.73 7.09832 13.702 7.10112 13.6768C7.10393 13.5758 7.10673 13.4692 7.10112 13.3626C7.09551 13.2476 6.99453 13.1578 6.87952 13.1634C6.76452 13.169 6.67475 13.2672 6.68036 13.385C6.68597 13.4748 6.68317 13.5674 6.68036 13.6655C6.68036 13.7665 6.67756 13.8731 6.68317 13.9825ZM16.5879 14.8296C16.571 14.7146 16.4645 14.6361 16.3494 14.6529C16.2344 14.6697 16.1559 14.7763 16.1727 14.8913C16.1811 14.9531 16.1755 15.0484 16.1699 15.1382C16.1671 15.1691 16.1671 15.1999 16.1643 15.2336C14.6355 15.256 13.1348 15.2784 11.6341 15.3009C10.1334 15.3233 8.62989 15.3458 7.10112 15.3682C7.10112 15.3317 7.10393 15.2953 7.10393 15.256C7.10673 15.1438 7.10954 15.0288 7.10393 14.911C7.09832 14.796 7.00014 14.7062 6.88513 14.7118C6.77013 14.7174 6.68036 14.8156 6.68597 14.9306C6.69158 15.0344 6.68878 15.1382 6.68597 15.2476C6.68317 15.3598 6.68036 15.4748 6.68597 15.5926C6.69158 15.7048 6.78415 15.7918 6.89635 15.7918H6.89916C8.50086 15.7693 10.0717 15.7441 11.6425 15.7216C13.2134 15.6992 14.7842 15.674 16.3859 15.6515C16.4476 15.6515 16.5037 15.6235 16.543 15.5786C16.5823 15.5337 16.5991 15.472 16.5907 15.4131C16.5823 15.3514 16.5879 15.256 16.5935 15.1662C16.5963 15.0484 16.6047 14.9334 16.5879 14.8296ZM1.34792 12.0274C1.05619 11.6319 0.997289 11.1466 1.00009 10.8072V10.7679C1.0029 10.4537 1.0057 9.98247 1.39 9.59818C1.40122 9.58696 1.41524 9.57574 1.42927 9.56732C1.54428 9.49719 1.80234 9.48036 3.50502 9.48036C3.63125 9.48036 3.75187 9.48036 3.87249 9.48036C3.87529 9.14375 3.8781 8.81837 3.88371 8.48737C3.88932 8.10868 3.89212 7.71597 3.89493 7.29521C3.90334 6.27978 4.29605 5.74681 4.52887 5.5168C5.00854 5.04835 5.91177 5.03432 6.39705 5.02591C8.51208 4.99225 10.6636 5.00347 12.7449 5.01469C14.5374 5.0231 16.3803 5.03432 18.2092 5.01469C18.2092 5.01469 18.2092 5.01469 18.212 5.01469C18.212 5.01469 18.212 5.01469 18.2148 5.01469C18.5065 5.01188 18.7955 5.00908 19.0872 5.00347C19.8277 4.99225 20.8432 4.97542 21.5865 5.53363C22.5767 6.27978 22.6749 7.63743 22.6356 8.99228C22.6104 9.79734 22.616 10.4565 22.6216 11.0961C22.6272 11.7384 22.6328 12.4004 22.6076 13.2139C22.5739 14.3696 22.4561 15.6627 21.5248 16.3921C20.8404 16.925 19.8951 16.9222 19.0591 16.9166C19.003 16.9166 18.9469 16.9166 18.8908 16.9166C19.1181 17.0372 19.3425 17.1494 19.5669 17.2588C20.0549 17.4973 20.5178 17.7245 20.8656 18.0078C20.9161 18.0499 20.9442 18.1088 20.9413 18.1733C20.9357 18.4454 20.9413 18.6249 20.9442 18.8016C20.947 18.9811 20.9526 19.1663 20.947 19.444C20.9442 19.5534 20.8572 19.6459 20.7478 19.6516C17.1517 19.8451 14.4813 19.8283 11.9006 19.8114C9.79119 19.7974 7.79678 19.7862 5.38442 19.8816C5.38162 19.8816 5.37881 19.8816 5.37601 19.8816C5.32271 19.8816 5.27222 19.8619 5.23295 19.8255C5.19087 19.7862 5.16843 19.7329 5.16563 19.6768C5.16002 19.4524 5.15721 19.2588 5.1516 19.0653C5.14599 18.8717 5.14318 18.6754 5.13757 18.451C5.13477 18.3781 5.17124 18.3107 5.23295 18.2715C5.71542 17.9517 6.31851 17.6515 6.89916 17.3598C7.17967 17.2196 7.46859 17.0765 7.74068 16.9306C7.3087 16.9138 6.87111 16.8942 6.4251 16.8689C6.04642 16.8493 5.61724 16.824 5.23295 16.6333C4.61864 16.3275 4.24556 15.8535 4.06043 15.1438C3.90054 14.5295 3.89493 13.8114 3.88932 12.9839C3.88932 12.81 3.88651 12.6305 3.88371 12.4509C3.8809 12.3443 3.8809 12.2406 3.8809 12.1396C3.66491 12.1368 3.44612 12.1368 3.2161 12.1368C2.64387 12.134 2.0548 12.1312 1.51062 12.1143C1.4461 12.1087 1.38719 12.0779 1.34792 12.0274ZM19.3929 16.4958C20.0886 16.493 20.773 16.4426 21.2611 16.0583C22.0522 15.4411 22.1503 14.2602 22.184 13.1999C22.2092 12.3948 22.2036 11.7356 22.198 11.0961C22.1924 10.4537 22.1868 9.79173 22.212 8.97826C22.2485 7.73561 22.17 6.50138 21.3313 5.87024C20.8039 5.47192 20.1139 5.41581 19.3312 5.42142C19.2274 9.09607 19.2499 12.8212 19.3929 16.4958ZM18.341 16.4958C18.4757 16.4958 18.6103 16.493 18.745 16.493C18.8207 16.493 18.8965 16.493 18.9722 16.493C18.8291 12.8212 18.8067 9.09887 18.9077 5.42423C18.745 5.42703 18.5823 5.42984 18.4196 5.42984L18.4168 5.65144C18.3915 9.26718 18.3663 12.8829 18.341 16.4958ZM18.0662 16.9194C17.0451 16.9278 16.083 16.9419 15.1461 16.9531C13.8193 16.9727 12.571 16.9895 11.3312 16.9895C10.4055 16.9895 9.48544 16.9811 8.54293 16.9531C8.10254 17.2224 7.5836 17.4832 7.08429 17.7329C6.55414 17.9994 6.00434 18.2715 5.55834 18.5548C5.56114 18.7315 5.56675 18.8914 5.56956 19.0513C5.57236 19.1803 5.57517 19.3121 5.57797 19.4496C7.90338 19.3598 9.84729 19.3739 11.9006 19.3879C14.428 19.4047 17.0395 19.4215 20.5234 19.2392C20.5234 19.0709 20.5206 18.9363 20.5178 18.8072C20.515 18.6529 20.5122 18.4931 20.515 18.2687C20.212 18.0414 19.8053 17.8423 19.3761 17.6319C18.9666 17.4327 18.5037 17.2055 18.0662 16.9194ZM4.29886 11.9292C4.29886 11.932 4.29886 11.932 4.29886 11.9292C4.30166 12.0947 4.30166 12.263 4.30447 12.4397C4.30727 12.622 4.30727 12.8044 4.31008 12.9783C4.31849 14.5632 4.32691 15.7076 5.41808 16.2546C5.72383 16.4061 6.0913 16.4285 6.44474 16.4454C9.47702 16.6109 12.0998 16.5744 15.1405 16.5323C16.0325 16.5211 16.9497 16.5071 17.9203 16.4987C17.9455 12.8829 17.9708 9.26437 17.996 5.64863L17.9988 5.43545C16.2372 5.45228 14.4672 5.44106 12.7421 5.43264C10.6636 5.42142 8.51488 5.4102 6.40547 5.44387C5.9791 5.44948 5.18526 5.4635 4.82621 5.81413C4.50924 6.1255 4.3241 6.66407 4.31849 7.29521C4.31569 7.71597 4.31008 8.10868 4.30727 8.48737C4.30166 8.88569 4.29886 9.27559 4.29605 9.68513V9.68794V9.69074C4.28764 10.3499 4.28764 11.0596 4.29886 11.9292ZM1.42085 10.81C1.41805 11.0596 1.45452 11.4074 1.63123 11.6936C2.13895 11.7076 2.68594 11.7104 3.2161 11.7132C3.4349 11.7132 3.6565 11.716 3.87529 11.716C3.86968 11.0288 3.86968 10.4453 3.87249 9.90112C3.75467 9.90112 3.63125 9.90112 3.50783 9.90112C2.85425 9.90112 1.8865 9.89832 1.65368 9.93479C1.42646 10.19 1.42366 10.4986 1.42366 10.7707L1.42085 10.81ZM12.6832 8.25174C12.4869 9.30925 12.4027 9.80014 12.3662 10.0274C12.6608 10.0386 12.8655 10.033 13.1292 10.0274C13.2442 10.0245 13.3761 10.0217 13.5303 10.0189C13.6818 10.0161 13.8193 10.1031 13.8866 10.2405C13.9511 10.378 13.9315 10.5379 13.8333 10.6557C12.8066 11.8787 12.1531 12.6417 11.2134 13.6683C11.1376 13.7525 11.0338 13.7946 10.93 13.7946C10.8599 13.7946 10.787 13.7749 10.7225 13.7357C10.5626 13.6347 10.4981 13.4411 10.5682 13.2644C10.6888 12.9587 10.8038 12.6613 10.9104 12.3752C11.0423 12.0246 11.1713 11.688 11.2919 11.3962C11.0843 11.3934 10.9104 11.399 10.7309 11.4046C10.6131 11.4074 10.4953 11.4103 10.3634 11.4131C10.2176 11.4131 10.0829 11.3345 10.0156 11.2055C9.94827 11.0764 9.95949 10.9222 10.0436 10.8016C10.5486 10.0919 11.4742 8.72019 11.9791 7.96562C12.0829 7.81135 12.2737 7.75244 12.4476 7.82257C12.6215 7.89269 12.7169 8.06941 12.6832 8.25174ZM12.1222 10.4369C12.0605 10.4341 12.0044 10.4032 11.9679 10.3555C11.9034 10.2742 11.9146 10.2013 11.9483 9.98528C11.9651 9.86746 11.9932 9.69916 12.0324 9.48597C12.0857 9.18583 12.1559 8.79873 12.24 8.33589C11.7323 9.09046 10.9132 10.3079 10.4279 10.9923C10.5317 10.9895 10.6271 10.9867 10.7225 10.9839C10.8768 10.9783 11.0366 10.9755 11.2218 10.9755C11.3424 10.9755 11.4714 10.9783 11.6201 10.9811C11.6902 10.9839 11.7547 11.0203 11.7912 11.0793C11.8277 11.1382 11.8333 11.2139 11.8052 11.2756C11.651 11.6178 11.4855 12.0582 11.3087 12.5239C11.219 12.7595 11.1264 13.0007 11.031 13.2504C11.8866 12.3079 12.5177 11.5729 13.4686 10.4397C13.348 10.4425 13.2386 10.4453 13.1433 10.4453C12.8038 10.4565 12.5626 10.4621 12.1222 10.4369Z" fill="#222222"/>
</svg>
