<svg width="24" height="22" viewBox="0 0 24 22" fill="none" xmlns="http://www.w3.org/2000/svg">
<path d="M20.8131 11.4505L14.4502 17.8134C14.3307 17.9329 14.1686 18 13.9997 18C13.8307 18 13.6687 17.9329 13.5492 17.8134C13.4297 17.6939 13.3626 17.5319 13.3626 17.3629C13.3626 17.1939 13.4297 17.0319 13.5492 16.9124L18.8266 11.6363H5.0916C4.92284 11.6363 4.761 11.5693 4.64167 11.4499C4.52235 11.3306 4.45531 11.1688 4.45531 11C4.45531 10.8312 4.52235 10.6694 4.64167 10.5501C4.761 10.4307 4.92284 10.3637 5.0916 10.3637H18.8266L13.5492 5.08759C13.4297 4.96811 13.3626 4.80606 13.3626 4.63709C13.3626 4.46813 13.4297 4.30608 13.5492 4.1866C13.6687 4.06712 13.8307 4 13.9997 4C14.1686 4 14.3307 4.06712 14.4502 4.1866L20.8131 10.5495C20.8723 10.6086 20.9193 10.6788 20.9514 10.7561C20.9835 10.8334 21 10.9163 21 11C21 11.0837 20.9835 11.1666 20.9514 11.2439C20.9193 11.3212 20.8723 11.3914 20.8131 11.4505Z" fill="white"/>
</svg>
