<svg width="6" height="12" viewBox="0 0 6 12" fill="none" xmlns="http://www.w3.org/2000/svg">
<path fill-rule="evenodd" clip-rule="evenodd" d="M4.85811 6.06476C3.33293 7.67135 1.84223 9.23895 0.386022 10.7676C0.309799 10.8517 0.267291 10.9634 0.267291 11.0795C0.267291 11.1956 0.309799 11.3073 0.386022 11.3914C0.592252 11.6324 0.918507 11.6115 1.06705 11.4471C2.57631 9.85819 4.1552 8.19752 5.80372 6.46513C5.93457 6.35233 6 6.21911 6 6.06546C6 5.91181 5.93457 5.77441 5.80372 5.65325L0.841585 0.566104C0.746324 0.474326 0.620772 0.425107 0.491539 0.428877C0.362306 0.432646 0.239549 0.489109 0.149287 0.586297C-0.08811 0.836267 0.0034008 1.08276 0.110826 1.19973C1.69574 2.8192 3.27839 4.44111 4.85877 6.06546" fill="#1B1F3A" fill-opacity="0.85"/>
</svg>
