<svg width="16" height="14" viewBox="0 0 16 14" fill="none" xmlns="http://www.w3.org/2000/svg">
<path d="M15.8192 7.45049L9.6658 13.8134C9.55025 13.9329 9.39354 14 9.23013 14C9.06673 14 8.91002 13.9329 8.79447 13.8134C8.67893 13.6939 8.61402 13.5319 8.61402 13.3629C8.61402 13.1939 8.67893 13.0319 8.79447 12.9124L13.8981 7.63629H0.615342C0.452143 7.63629 0.295629 7.56925 0.180229 7.44993C0.0648298 7.3306 0 7.16876 0 7C0 6.83125 0.0648298 6.6694 0.180229 6.55008C0.295629 6.43075 0.452143 6.36371 0.615342 6.36371H13.8981L8.79447 1.08759C8.67893 0.96811 8.61402 0.806063 8.61402 0.637095C8.61402 0.468127 8.67893 0.306079 8.79447 0.186601C8.91002 0.0671224 9.06673 1.25891e-09 9.23013 0C9.39354 -1.25891e-09 9.55025 0.0671224 9.6658 0.186601L15.8192 6.54951C15.8765 6.60861 15.922 6.67883 15.953 6.75613C15.984 6.83344 16 6.91631 16 7C16 7.08369 15.984 7.16657 15.953 7.24387C15.922 7.32117 15.8765 7.39139 15.8192 7.45049Z" fill="black"/>
</svg>
