<svg width="38" height="38" viewBox="0 0 38 38" fill="none" xmlns="http://www.w3.org/2000/svg">
<path d="M18.9999 8.49458V4.75M18.9999 8.49458C21.1927 8.57961 23.2666 9.51386 24.7832 11.0999C26.2998 12.6859 27.1403 14.7995 27.1272 16.9939V19.8439C27.1272 23.6218 30.0833 24.5654 30.0833 26.4543C30.0833 27.3933 30.0833 28.3432 29.2314 28.3432H8.76843C7.91659 28.3432 7.91659 27.3933 7.91659 26.4543C7.91659 24.5654 10.8727 23.6218 10.8727 19.8439V16.9939C10.8595 14.7995 11.7001 12.6859 13.2167 11.0999C14.7333 9.51386 16.8071 8.57961 18.9999 8.49458ZM6.12109 16.9939C6.13436 13.638 7.40685 10.4093 9.68676 7.94675M31.8788 16.9939C31.8655 13.638 30.593 10.4093 28.3131 7.94675M13.5216 28.3432C13.6671 29.6946 14.307 30.9446 15.3182 31.8528C16.3295 32.761 17.6407 33.2634 18.9999 33.2634C20.3591 33.2634 21.6704 32.761 22.6816 31.8528C23.6929 30.9446 24.3327 29.6946 24.4783 28.3432H13.5216Z" stroke="#CE2926" stroke-width="2" stroke-linecap="round" stroke-linejoin="round"/>
</svg>
