<svg width="24" height="24" viewBox="0 0 24 24" fill="none" xmlns="http://www.w3.org/2000/svg">
<path fill-rule="evenodd" clip-rule="evenodd" d="M4 1.5C3.46957 1.5 2.96086 1.71071 2.58579 2.08579C2.21071 2.46086 2 2.96957 2 3.5V4.5C2 4.55733 2.00233 4.61333 2.007 4.668C1.42021 4.87383 0.911887 5.25691 0.552334 5.76427C0.192781 6.27162 -0.000229392 6.87816 2.04601e-07 7.5V19.5C2.04601e-07 20.2956 0.316071 21.0587 0.87868 21.6213C1.44129 22.1839 2.20435 22.5 3 22.5H21C21.7956 22.5 22.5587 22.1839 23.1213 21.6213C23.6839 21.0587 24 20.2956 24 19.5V7.5C24 6.70435 23.6839 5.94129 23.1213 5.37868C22.5587 4.81607 21.7956 4.5 21 4.5H11.874C11.6523 3.64121 11.1514 2.88047 10.4501 2.33741C9.74883 1.79435 8.88696 1.49977 8 1.5H4ZM9.732 4.5C9.55647 4.19597 9.304 3.9435 8.99997 3.76796C8.69594 3.59243 8.35106 3.50001 8 3.5H4V4.5H9.732ZM3 6.5C2.73478 6.5 2.48043 6.60536 2.29289 6.79289C2.10536 6.98043 2 7.23478 2 7.5V19.5C2 19.7652 2.10536 20.0196 2.29289 20.2071C2.48043 20.3946 2.73478 20.5 3 20.5H21C21.2652 20.5 21.5196 20.3946 21.7071 20.2071C21.8946 20.0196 22 19.7652 22 19.5V7.5C22 7.23478 21.8946 6.98043 21.7071 6.79289C21.5196 6.60536 21.2652 6.5 21 6.5H3Z" fill="#CE2926"/>
</svg>
