<svg width="38" height="39" viewBox="0 0 38 39" fill="none" xmlns="http://www.w3.org/2000/svg">
<path d="M18.5279 32.3061C18.7348 32.3061 18.947 32.2596 19.1644 32.1668C19.3818 32.0739 19.5576 31.9604 19.6917 31.8263L32.0353 19.4811C32.4333 19.0831 32.7404 18.6768 32.9568 18.2619C33.1722 17.845 33.2798 17.3879 33.2798 16.8908C33.2798 16.3873 33.1722 15.8985 32.9568 15.4246C32.7404 14.9496 32.4333 14.5168 32.0353 14.1263L26.0978 8.18876C25.7062 7.79081 25.3035 7.49895 24.8897 7.31317C24.477 7.12739 24.0189 7.03451 23.5154 7.03451C23.0182 7.03451 22.5564 7.12739 22.13 7.31317C21.7035 7.49895 21.3019 7.79028 20.9251 8.18717L19.5444 9.56784L22.4736 12.5049C22.7881 12.8142 23.023 13.1657 23.1782 13.5594C23.3323 13.9531 23.4093 14.3527 23.4093 14.758C23.4093 15.5824 23.1396 16.2643 22.6002 16.8037C22.0608 17.3431 21.3795 17.6122 20.5562 17.6112C20.1498 17.6112 19.7534 17.5494 19.3671 17.4259C18.9807 17.3024 18.6329 17.086 18.3237 16.7768L15.9946 14.4588C15.812 14.2761 15.5787 14.1848 15.2947 14.1848C15.0097 14.1848 14.7759 14.2761 14.5933 14.4588L8.4579 20.5942C8.29851 20.7546 8.17871 20.9367 8.09849 21.1404C8.01826 21.3441 7.97815 21.55 7.97815 21.7579C7.97815 22.1316 8.09796 22.4393 8.33757 22.681C8.57613 22.9238 8.88224 23.0452 9.2559 23.0452C9.46279 23.0452 9.67496 22.9987 9.8924 22.9058C10.1098 22.8119 10.2856 22.6979 10.4197 22.5638L14.8767 18.1068C15.0245 17.959 15.205 17.8782 15.4182 17.8645C15.6315 17.8508 15.8246 17.9315 15.9977 18.1068C16.1666 18.2756 16.2511 18.4625 16.2511 18.6673C16.2511 18.872 16.1666 19.0589 15.9977 19.2278L11.5486 23.6848C11.3881 23.8453 11.2678 24.0274 11.1876 24.2311C11.1084 24.4359 11.0688 24.6417 11.0688 24.8486C11.0688 25.2022 11.1934 25.5036 11.4425 25.7527C11.6916 26.0018 11.993 26.1269 12.3466 26.1279C12.5535 26.1279 12.7656 26.0809 12.9831 25.987C13.2005 25.8931 13.3763 25.7796 13.5103 25.6466L18.3332 20.8333C18.4809 20.6844 18.6609 20.6031 18.8731 20.5894C19.0852 20.5757 19.2784 20.6564 19.4526 20.8317C19.6215 21.0006 19.7059 21.1874 19.7059 21.3922C19.7059 21.597 19.6215 21.7838 19.4526 21.9527L14.6392 26.7755C14.4999 26.9096 14.3848 27.0853 14.2941 27.3028C14.2033 27.5202 14.1579 27.7324 14.1579 27.9393C14.1579 28.2918 14.283 28.5926 14.5332 28.8418C14.7833 29.093 15.0847 29.2186 15.4372 29.2186C15.6441 29.2186 15.85 29.1785 16.0547 29.0983C16.2595 29.018 16.4411 28.8977 16.5994 28.7373L21.4238 23.9239C21.5716 23.7751 21.7516 23.6938 21.9637 23.6801C22.1759 23.6674 22.3696 23.7482 22.5448 23.9223C22.7127 24.0912 22.7966 24.2781 22.7966 24.4828C22.7966 24.6876 22.7121 24.8744 22.5432 25.0433L17.722 29.8646C17.5626 30.025 17.4428 30.2177 17.3626 30.4425C17.2823 30.6673 17.2422 30.8726 17.2422 31.0584C17.2422 31.4321 17.3737 31.7334 17.6365 31.9625C17.8993 32.1916 18.197 32.3061 18.5295 32.3061M18.52 33.8894C17.7062 33.8894 17.0095 33.5918 16.43 32.9964C15.8505 32.4011 15.5961 31.6654 15.6668 30.7893C14.7696 30.7998 14.0228 30.5322 13.4264 29.9865C12.83 29.4408 12.5466 28.6787 12.5762 27.7002C11.5987 27.7107 10.8282 27.431 10.2645 26.861C9.70082 26.291 9.44432 25.5405 9.49499 24.6095C8.61465 24.6201 7.87788 24.372 7.28465 23.8653C6.69249 23.3608 6.3964 22.6578 6.3964 21.7563C6.3964 21.35 6.47504 20.9436 6.63232 20.5372C6.7896 20.1297 7.02182 19.7719 7.32899 19.4637L13.4961 13.2966C13.9816 12.8121 14.5801 12.5698 15.2916 12.5698C16.003 12.5698 16.6015 12.8126 17.0871 13.2982L19.3845 15.5956C19.5185 15.736 19.6843 15.8516 19.8817 15.9423C20.079 16.0331 20.3012 16.078 20.5482 16.0769C20.8871 16.0769 21.1863 15.9587 21.446 15.7223C21.7057 15.4858 21.836 15.1776 21.8371 14.7976C21.8371 14.5506 21.7917 14.3289 21.7009 14.1326C21.6101 13.9352 21.4951 13.7695 21.3557 13.6354L15.9091 8.18876C15.5164 7.79081 15.1084 7.49895 14.6852 7.31317C14.2619 7.12739 13.7985 7.03451 13.295 7.03451C12.7978 7.03451 12.346 7.12739 11.9397 7.31317C11.5343 7.49895 11.1327 7.79081 10.7347 8.18876L5.91349 13.0179C5.36038 13.57 5.00465 14.2439 4.84632 15.0398C4.68799 15.8357 4.76029 16.5957 5.06324 17.3198C5.12235 17.5246 5.09596 17.7225 4.98407 17.9136C4.87218 18.1046 4.71385 18.226 4.50907 18.2778C4.30429 18.3295 4.1011 18.302 3.89949 18.1954C3.69788 18.0888 3.57121 17.9321 3.51949 17.7252C3.17854 16.7013 3.10413 15.6674 3.29624 14.6234C3.48835 13.5795 3.98446 12.6574 4.78457 11.8573L9.57257 7.06776C10.1246 6.52098 10.7089 6.11459 11.3253 5.84859C11.9418 5.58364 12.6083 5.45117 13.3251 5.45117C14.0418 5.45117 14.7026 5.58417 15.3074 5.85017C15.9133 6.11512 16.4896 6.52098 17.0364 7.06776L18.4139 8.44684L19.7946 7.06776C20.3466 6.52098 20.9256 6.11459 21.5315 5.84859C22.1374 5.58364 22.7987 5.45117 23.5154 5.45117C24.2321 5.45117 24.8987 5.58417 25.5152 5.85017C26.1305 6.11512 26.7111 6.52098 27.2568 7.06776L33.1563 12.9657C33.702 13.5114 34.1232 14.1241 34.4198 14.8039C34.7164 15.4837 34.8642 16.182 34.8632 16.8987C34.8632 17.6165 34.7154 18.2778 34.4198 18.8826C34.1243 19.4874 33.7031 20.0638 33.1563 20.6116L20.8111 32.9458C20.4828 33.2751 20.125 33.5147 19.7376 33.6646C19.3512 33.8145 18.9464 33.8894 18.52 33.8894Z" fill="#CE2926"/>
</svg>
