<svg width="38" height="39" viewBox="0 0 38 39" fill="none" xmlns="http://www.w3.org/2000/svg">
<path d="M20.6732 12.4956C21.0408 12.128 21.4772 11.8364 21.9575 11.6374C22.4378 11.4385 22.9526 11.3361 23.4725 11.3361C23.9924 11.3361 24.5072 11.4385 24.9875 11.6374C25.4678 11.8364 25.9042 12.128 26.2718 12.4956C26.6394 12.8632 26.9311 13.2996 27.13 13.78C27.329 14.2603 27.4314 14.7751 27.4314 15.2949C27.4314 15.8148 27.329 16.3296 27.13 16.8099C26.9311 17.2902 26.6394 17.7267 26.2718 18.0943C25.5285 18.8313 24.5235 19.2439 23.4766 19.2418C22.4298 19.2397 21.4265 18.8229 20.6862 18.0828C19.9459 17.3427 19.5289 16.3395 19.5264 15.2927C19.524 14.2459 19.9363 13.2407 20.6732 12.4972M24.5919 14.1771C24.4448 14.0301 24.2702 13.9135 24.078 13.834C23.8859 13.7545 23.6799 13.7136 23.4719 13.7137C23.264 13.7137 23.0581 13.7548 22.8659 13.8344C22.6738 13.9141 22.4993 14.0308 22.3523 14.1779C22.2053 14.325 22.0887 14.4996 22.0092 14.6918C21.9297 14.884 21.8888 15.0899 21.8888 15.2979C21.8889 15.5058 21.93 15.7118 22.0096 15.9039C22.0893 16.096 22.206 16.2705 22.3531 16.4175C22.6502 16.7144 23.053 16.8811 23.4731 16.881C23.8931 16.8808 24.2958 16.7138 24.5927 16.4167C24.8896 16.1196 25.0563 15.7168 25.0562 15.2968C25.056 14.8767 24.889 14.474 24.5919 14.1771ZM34.0555 7.57619C33.8458 6.90177 33.4752 6.28847 32.9757 5.7892C32.4761 5.28993 31.8626 4.91967 31.1881 4.71036L30.1383 4.38419C28.2789 3.80737 26.2973 3.74939 24.4074 4.2165C22.5174 4.68361 20.791 5.65807 19.4144 7.03469L17.8374 8.61169C16.7705 7.81381 15.4519 7.42698 14.123 7.52207C12.7942 7.61715 11.544 8.18778 10.6016 9.12944L8.63667 11.0944C8.41429 11.317 8.28938 11.6188 8.28938 11.9335C8.28938 12.2482 8.41429 12.55 8.63667 12.7727L11.1558 15.2934L10.8708 15.5784C10.3515 16.0979 10.0599 16.8024 10.0599 17.5369C10.0599 18.2715 10.3515 18.9759 10.8708 19.4955L11.6561 20.2809L9.44575 21.5412C9.28738 21.6318 9.15204 21.7578 9.05022 21.9092C8.9484 22.0606 8.88284 22.2335 8.85865 22.4143C8.83445 22.5952 8.85226 22.7792 8.91069 22.9521C8.96913 23.1249 9.06661 23.282 9.19558 23.4111L15.3532 29.5703C15.4823 29.6992 15.6393 29.7967 15.8122 29.8552C15.9851 29.9136 16.1691 29.9314 16.3499 29.9072C16.5308 29.883 16.7037 29.8175 16.8551 29.7156C17.0065 29.6138 17.1324 29.4785 17.2231 29.3201L18.4866 27.1114L19.2735 27.8983C19.5308 28.1556 19.8363 28.3597 20.1725 28.499C20.5086 28.6383 20.869 28.7099 21.2329 28.7099C21.5968 28.7099 21.9571 28.6383 22.2933 28.499C22.6295 28.3597 22.935 28.1556 23.1923 27.8983L23.4725 27.618L25.99 30.1355C26.2127 30.3579 26.5145 30.4828 26.8292 30.4828C27.1439 30.4828 27.4457 30.3579 27.6683 30.1355L29.6348 28.1674C30.5755 27.2255 31.1456 25.9764 31.241 24.6486C31.3363 23.3208 30.9506 22.0031 30.1542 20.9364L31.7343 19.3562C33.1118 17.9789 34.0867 16.2512 34.5535 14.3601C35.0204 12.4689 34.9615 10.4861 34.3833 8.62594L34.0555 7.57619ZM30.4835 6.97769C31.1058 7.17086 31.5934 7.65853 31.7866 8.28078L32.1143 9.33369C32.5636 10.7804 32.6091 12.3223 32.2457 13.7929C31.8824 15.2635 31.1241 16.6069 30.0528 17.6779L21.5108 26.2199C21.4366 26.2939 21.3361 26.3354 21.2313 26.3354C21.1265 26.3354 21.026 26.2939 20.9518 26.2199L12.5491 17.8188C12.5122 17.782 12.483 17.7383 12.463 17.6902C12.4431 17.6421 12.4328 17.5906 12.4328 17.5385C12.4328 17.4865 12.4431 17.4349 12.463 17.3868C12.483 17.3387 12.5122 17.295 12.5491 17.2583L21.0943 8.71461C22.165 7.64387 23.5078 6.88594 24.9778 6.52263C26.4478 6.15932 27.9891 6.20443 29.4353 6.65311L30.4835 6.97769ZM28.4426 22.6479C29.1598 23.8608 28.9968 25.4489 27.9549 26.4907L26.8276 27.618L25.1493 25.9397L28.4426 22.6479ZM12.2831 10.8062C12.7796 10.3109 13.4265 9.99448 14.1222 9.9065C14.818 9.81853 15.5233 9.96401 16.1274 10.3201L12.8341 13.6134L11.1558 11.9351L12.2831 10.8062ZM16.7449 25.3713L15.9311 26.7915L11.9728 22.8332L13.3946 22.0209L16.7449 25.3713ZM10.5921 29.8553C10.8018 29.6302 10.916 29.3324 10.9106 29.0248C10.9052 28.7171 10.7806 28.4236 10.563 28.206C10.3454 27.9885 10.0519 27.8638 9.74424 27.8584C9.4366 27.853 9.13886 27.9672 8.91375 28.1769L4.99342 32.0941C4.77065 32.3169 4.6455 32.619 4.6455 32.9341C4.6455 33.2491 4.77065 33.5513 4.99342 33.774C5.21619 33.9968 5.51833 34.1219 5.83338 34.1219C6.14842 34.1219 6.45056 33.9968 6.67333 33.774L10.5921 29.8553ZM7.5125 25.0989C7.73488 25.3216 7.85979 25.6234 7.85979 25.9381C7.85979 26.2528 7.73488 26.5546 7.5125 26.7773L5.83417 28.4572C5.6103 28.6736 5.3104 28.7934 4.99903 28.7909C4.68767 28.7883 4.38977 28.6636 4.1695 28.4435C3.94922 28.2234 3.82419 27.9257 3.82134 27.6143C3.81849 27.3029 3.93804 27.0029 4.15425 26.7789L5.83258 25.0989C5.94286 24.9886 6.07381 24.9011 6.21793 24.8413C6.36205 24.7816 6.51653 24.7509 6.67254 24.7509C6.82855 24.7509 6.98303 24.7816 7.12715 24.8413C7.27128 24.9011 7.40222 24.9886 7.5125 25.0989ZM13.6669 32.9396C13.7836 32.8309 13.8772 32.6998 13.9421 32.5541C14.007 32.4085 14.0419 32.2512 14.0447 32.0918C14.0475 31.9323 14.0182 31.7739 13.9584 31.6261C13.8987 31.4782 13.8098 31.3439 13.6971 31.2311C13.5843 31.1184 13.45 31.0295 13.3021 30.9697C13.1543 30.91 12.9959 30.8807 12.8364 30.8835C12.677 30.8863 12.5197 30.9212 12.3741 30.9861C12.2284 31.051 12.0973 31.1446 11.9886 31.2613L10.3118 32.9364C10.1021 33.1616 9.98788 33.4593 9.99331 33.7669C9.99873 34.0746 10.1234 34.3681 10.3409 34.5857C10.5585 34.8032 10.852 34.9279 11.1597 34.9333C11.4673 34.9387 11.7651 34.8245 11.9902 34.6148L13.6669 32.9396Z" fill="#CE2926"/>
</svg>
