<svg width="38" height="39" viewBox="0 0 38 39" fill="none" xmlns="http://www.w3.org/2000/svg">
<path d="M23.8446 17.3553C24.0546 17.1202 24.1625 16.8112 24.1447 16.4965C24.1269 16.1817 23.9848 15.887 23.7496 15.677C23.5145 15.467 23.2055 15.3591 22.8908 15.3769C22.576 15.3947 22.2813 15.5368 22.0713 15.772L17.3039 21.1142L15.9264 19.572C15.7159 19.3394 15.4218 19.1995 15.1085 19.183C14.7952 19.1664 14.4881 19.2745 14.2542 19.4837C14.0204 19.6929 13.8788 19.9861 13.8604 20.2993C13.8421 20.6125 13.9484 20.9203 14.1562 21.1553L16.4172 23.6887C16.5286 23.8134 16.6651 23.9133 16.8178 23.9816C16.9704 24.05 17.1358 24.0854 17.3031 24.0854C17.4704 24.0854 17.6357 24.05 17.7884 23.9816C17.9411 23.9133 18.0776 23.8134 18.189 23.6887L23.8446 17.3553Z" fill="#CE2926"/>
<path fill-rule="evenodd" clip-rule="evenodd" d="M19 2.70898C17.5164 2.70898 16.0977 3.19507 13.8114 3.97723L12.6603 4.37307C10.3154 5.17423 8.50408 5.7949 7.20892 6.32057C6.55658 6.58498 5.9945 6.84307 5.54325 7.10432C5.10783 7.35765 4.67242 7.67273 4.37633 8.09548C4.08342 8.5119 3.93142 9.0249 3.83642 9.52048C3.73667 10.0335 3.67808 10.6494 3.6385 11.3572C3.5625 12.76 3.5625 14.6853 3.5625 17.1807V19.7156C3.5625 29.3755 10.8585 34.0067 15.1968 35.9036L15.2396 35.921C15.7779 36.1569 16.2846 36.377 16.8657 36.5258C17.4784 36.6842 18.1308 36.7507 19 36.7507C19.8708 36.7507 20.52 36.6842 21.1343 36.5258C21.7154 36.377 22.2221 36.1569 22.7588 35.921L22.8032 35.9036C27.1415 34.0067 34.4375 29.3755 34.4375 19.7156V17.1807C34.4375 14.6853 34.4375 12.76 34.3615 11.3556C34.3353 10.7397 34.2692 10.1262 34.1636 9.5189C34.0686 9.0249 33.9166 8.5119 33.6252 8.0939C33.3276 7.67273 32.8922 7.35765 32.4568 7.10432C31.919 6.80744 31.3626 6.54564 30.7911 6.32057C29.4959 5.7949 27.6846 5.17423 25.3397 4.37307L24.1886 3.97723C21.9023 3.19507 20.4836 2.70898 19 2.70898ZM14.3767 6.29365C16.9338 5.41965 17.9582 5.08398 19 5.08398C20.0418 5.08398 21.0662 5.41965 23.6233 6.29365L24.529 6.60398C26.9246 7.42415 28.671 8.02265 29.8965 8.51982C30.5093 8.76998 30.9526 8.97898 31.2645 9.15948C31.4165 9.24815 31.5263 9.32151 31.5938 9.37957C31.654 9.42707 31.6778 9.45557 31.6809 9.45873C31.7017 9.49598 31.7187 9.53524 31.7316 9.5759C31.7633 9.66246 31.7965 9.79335 31.8313 9.96857C31.9189 10.4699 31.9718 10.9768 31.9897 11.4854C32.0625 12.817 32.0625 14.6758 32.0625 17.2234V19.7156C32.0625 27.9109 25.935 31.9437 21.8516 33.7265C21.2642 33.983 20.9237 34.1287 20.5453 34.2252C20.1843 34.3187 19.7442 34.3757 19 34.3757C18.2558 34.3757 17.8157 34.3187 17.4547 34.2252C17.0747 34.1302 16.7358 33.983 16.1484 33.7265C12.0634 31.9437 5.9375 27.9093 5.9375 19.7156V17.2234C5.9375 14.6758 5.9375 12.817 6.01033 11.4854C6.02822 10.9768 6.08112 10.4699 6.16867 9.96857C6.20244 9.79335 6.23569 9.66246 6.26842 9.5759C6.29692 9.49673 6.31592 9.46507 6.31908 9.45873C6.34559 9.4297 6.37474 9.4032 6.40617 9.37957C6.47372 9.32151 6.5835 9.24762 6.7355 9.1579C7.04742 8.9774 7.49075 8.76998 8.1035 8.5214C9.329 8.02265 11.0754 7.42415 13.471 6.60557L14.3767 6.29365Z" fill="#CE2926"/>
</svg>
